<svg xmlns="http://www.w3.org/2000/svg" width="127" height="50" viewBox="0 0 127 50" fill="none"><g clip-path="url(#clip0_200_1105)"><path d="M13.1191 37.4434C14.7554 37.4434 16.1155 37.5992 17.178 37.9179C18.2477 38.2366 19.0836 38.6615 19.6928 39.2139C20.302 39.7592 20.727 40.3825 20.9749 41.0836C21.2229 41.7847 21.3504 42.5142 21.3504 43.2791C21.3504 44.044 21.2087 44.7734 20.9324 45.4746C20.6562 46.1757 20.1957 46.7919 19.5582 47.3443C18.9206 47.8896 18.0777 48.3216 17.0293 48.6403C15.9809 48.959 14.6775 49.1148 13.1191 49.1148H0V37.4575H13.1191V37.4434ZM4.55484 45.4533H12.9349C13.6149 45.4533 14.1887 45.4108 14.6633 45.3188C15.1379 45.2267 15.5134 45.0921 15.8038 44.908C16.0871 44.7239 16.2926 44.4972 16.4201 44.2281C16.5476 43.9519 16.6113 43.6332 16.6113 43.272C16.6113 42.9108 16.5476 42.5921 16.4201 42.3159C16.2926 42.0397 16.0871 41.8131 15.8038 41.636C15.5205 41.4519 15.1379 41.3173 14.6633 41.2253C14.1887 41.1332 13.6149 41.0907 12.9349 41.0907H4.55484V45.4604V45.4533Z" fill="white"></path><path d="M34.5543 49.4617C31.905 49.4617 29.7728 49.228 28.1577 48.7606C26.5426 48.2932 25.3667 47.5991 24.63 46.6855C23.8933 45.7719 23.5249 44.6317 23.5249 43.2719C23.5249 41.9121 23.8933 40.7719 24.63 39.8583C25.3667 38.9446 26.5426 38.2506 28.1577 37.7832C29.7728 37.3157 31.905 37.082 34.5543 37.082C37.2036 37.082 39.3358 37.3157 40.9509 37.7832C42.566 38.2506 43.7419 38.9446 44.4786 39.8583C45.2153 40.7719 45.5836 41.9121 45.5836 43.2719C45.5836 44.6317 45.2153 45.7719 44.4786 46.6855C43.7419 47.5991 42.566 48.2932 40.9509 48.7606C39.3358 49.228 37.2036 49.4617 34.5543 49.4617ZM34.5543 45.9985C35.8081 45.9985 36.8848 45.9206 37.7986 45.7719C38.7124 45.6232 39.4137 45.347 39.9096 44.9504C40.4054 44.5538 40.6534 43.9943 40.6534 43.2648C40.6534 42.5353 40.4054 41.9758 39.9096 41.5792C39.4137 41.1826 38.7053 40.9135 37.7986 40.7577C36.8848 40.609 35.8081 40.5311 34.5543 40.5311C33.3004 40.5311 32.2096 40.609 31.2674 40.7577C30.3253 40.9064 29.5886 41.1826 29.0644 41.5792C28.5331 41.9758 28.271 42.5353 28.271 43.2648C28.271 43.9943 28.5331 44.5538 29.0644 44.9504C29.5957 45.347 30.3253 45.6161 31.2674 45.7719C32.2096 45.9206 33.3075 45.9985 34.5543 45.9985Z" fill="white"></path><path d="M69.6191 37.4434L61.0478 46.2961L52.4977 37.4434H47.9429V49.0936H52.4977V43.1516L58.3276 49.0936H63.7963L69.6191 43.1233V49.0936H74.1739V37.4434H69.6191Z" fill="white"></path><path d="M93.1015 42.4505V37.4434H97.6563V43.272C97.6563 44.306 97.465 45.1842 97.0825 45.9066C96.7 46.629 96.1687 47.2239 95.4887 47.6913C94.8086 48.1587 94.0223 48.5199 93.1369 48.7749C92.2514 49.0298 91.3022 49.2069 90.2892 49.3131C89.2762 49.4194 88.2491 49.4689 87.2007 49.4689C86.0956 49.4689 85.026 49.4194 83.9918 49.3131C82.9576 49.2069 82.0013 49.0298 81.1229 48.7749C80.2445 48.5199 79.4724 48.1587 78.8207 47.6913C78.1619 47.2239 77.6518 46.629 77.2835 45.9066C76.9151 45.1842 76.731 44.306 76.731 43.272V37.4434H81.2858V42.4505C81.2858 43.4207 81.5196 44.1644 81.9942 44.6743C82.4688 45.1842 83.1417 45.5312 84.0272 45.7225C84.9056 45.9137 85.9681 46.0057 87.2078 46.0057C88.4474 46.0057 89.4533 45.9137 90.3388 45.7225C91.2243 45.5312 91.9114 45.1842 92.386 44.6743C92.8677 44.1644 93.1085 43.4207 93.1085 42.4505H93.1015Z" fill="white"></path><path d="M121.883 37.4434L113.304 46.2961L104.761 37.4434H100.207V49.0936H104.761V43.1516L110.591 49.0936H116.053L121.883 43.1233V49.0936H126.438V37.4434H121.883Z" fill="white"></path><path d="M76.4121 20.4107C76.235 19.8512 75.8737 19.3625 75.3566 18.973C74.9245 18.6472 74.3861 18.3923 73.7344 18.2081C72.7356 17.9178 71.496 17.7903 70.0438 17.8328V12.6769L66.2186 11.0268V8.7959L56.3651 12.8752V21.5226C54.3321 22.5637 52.6108 23.7393 51.5057 24.8654C50.8965 25.4887 50.4502 26.119 50.1881 26.721C50.0323 27.0751 49.9402 27.4292 49.9048 27.7691C49.8694 28.1516 49.9048 28.5269 50.0181 28.881C50.174 29.3626 50.4573 29.7875 50.8682 30.1487C51.2153 30.4533 51.6545 30.7082 52.1716 30.9065C53.0641 31.2536 54.2117 31.4377 55.5788 31.466C55.6851 31.466 55.7914 31.466 55.8976 31.466C58.4973 31.466 61.6779 30.9065 64.894 29.8725C68.2446 28.796 71.2622 27.33 73.3944 25.7436C74.4924 24.9292 75.3141 24.1076 75.8383 23.3073C76.1429 22.847 76.3483 22.3796 76.4546 21.9334C76.5821 21.4022 76.5609 20.8852 76.405 20.4036L76.4121 20.4107ZM67.8479 14.1146V26.2677C67.3166 26.5085 66.7711 26.7351 66.2115 26.9547V13.4064L67.8479 14.1146ZM55.6213 29.1501C54.5375 29.1289 53.6379 28.9943 53.0075 28.7465C52.5753 28.5765 52.292 28.3711 52.2282 28.1728C52.1432 27.9178 52.3416 27.3229 53.1633 26.4802C53.6167 26.0198 54.1975 25.5382 54.8988 25.0566C55.3451 24.7521 55.8339 24.4476 56.3581 24.1501V29.1431C56.103 29.1431 55.8622 29.1502 55.6213 29.1431V29.1501ZM58.5469 28.966V14.3342L64.0226 12.0679V27.7195C62.4996 28.2011 60.9908 28.5694 59.5387 28.8173C59.2057 28.8739 58.8728 28.9235 58.554 28.966H58.5469ZM73.8974 22.0396C73.529 22.6062 72.8702 23.2436 72.006 23.8881C71.4252 24.3201 70.7664 24.745 70.0297 25.1558V20.1416C71.2622 20.1062 72.3035 20.2053 73.0827 20.4249C73.4511 20.5311 73.7557 20.6657 73.954 20.8215C74.0815 20.9206 74.1666 21.0198 74.1949 21.1118C74.2586 21.3102 74.1524 21.643 73.8974 22.0325V22.0396Z" fill="white"></path></g><defs><clipPath id="clip0_200_1105"><rect width="126.438" height="49.4621" fill="white"></rect></clipPath></defs></svg>